<svg width="24" height="24" viewBox="0 0 24 24" fill="none" xmlns="http://www.w3.org/2000/svg">
  <path d="M4 19V6.2C4 5.0799 4 4.51984 4.21799 4.09202C4.40973 3.71569 4.71569 3.40973 5.09202 3.21799C5.51984 3 6.0799 3 7.2 3H16.8C17.9201 3 18.4802 3 18.908 3.21799C19.2843 3.40973 19.5903 3.71569 19.782 4.09202C20 4.51984 20 5.0799 20 6.2V17H6C5.06812 17 4.60218 17 4.23463 17.1522C3.74458 17.3552 3.35523 17.7446 3.15224 18.2346C3 18.6022 3 19.0681 3 20C3 20.9319 3 21.3978 3.15224 21.7654C3.35523 22.2554 3.74458 22.6448 4.23463 22.8478C4.60218 23 5.06812 23 6 23H20" stroke="currentColor" stroke-width="2" stroke-linecap="round" stroke-linejoin="round"/>
</svg>
